<svg width="16" height="17" viewBox="0 0 16 17" fill="none" xmlns="http://www.w3.org/2000/svg">
<path d="M8.00001 15.21C4.88868 11.15 3.33334 8.26134 3.33334 6.54334C3.33334 5.30567 3.82501 4.11868 4.70018 3.24351C5.57535 2.36834 6.76233 1.87668 8.00001 1.87668C9.23769 1.87668 10.4247 2.36834 11.2998 3.24351C12.175 4.11868 12.6667 5.30567 12.6667 6.54334C12.6667 8.26134 11.1113 11.15 8.00001 15.21ZM8.00001 9.21001C8.70725 9.21001 9.38553 8.92906 9.88563 8.42896C10.3857 7.92887 10.6667 7.25059 10.6667 6.54334C10.6667 5.8361 10.3857 5.15782 9.88563 4.65773C9.38553 4.15763 8.70725 3.87668 8.00001 3.87668C7.29277 3.87668 6.61449 4.15763 6.11439 4.65773C5.61429 5.15782 5.33334 5.8361 5.33334 6.54334C5.33334 7.25059 5.61429 7.92887 6.11439 8.42896C6.61449 8.92906 7.29277 9.21001 8.00001 9.21001V9.21001Z" fill="white"/>
</svg>
