<svg width="24" height="24" viewBox="0 0 24 24" fill="none" xmlns="http://www.w3.org/2000/svg">
<path d="M9.67096 15.44L21.926 3.384C22.042 3.792 22.022 4.231 21.865 4.634L15.615 20.714C15.22 21.73 14.083 22.252 13.075 21.879C12.8294 21.7884 12.6051 21.648 12.4164 21.4666C12.2276 21.2852 12.0783 21.0668 11.978 20.825L9.99696 16.055C9.90696 15.839 9.79696 15.632 9.67096 15.438V15.44ZM8.26096 14.152C8.15761 14.0979 8.05183 14.0485 7.94396 14.004L3.17396 12.023C2.18496 11.61 1.73196 10.465 2.16496 9.465C2.2713 9.22003 2.42511 8.99856 2.61752 8.81336C2.80992 8.62816 3.03711 8.48291 3.28596 8.386L19.366 2.136C19.826 1.957 20.306 1.961 20.731 2.111L8.25996 14.152H8.26096Z" fill="#e72370"/>
</svg>
